<?xml version="1.0" encoding="UTF-8" standalone="no"?>
<!DOCTYPE svg PUBLIC "-//WAPFORUM//DTD SVG 1.2 Tiny//EN"
  "http://www.wapforum.org/DTD/svg12-tiny.dtd">
<svg version="1.2" baseProfile="tiny" xmlns="http://www.w3.org/2000/svg"
     width="512" height="512" viewBox="0 0 1024 1024">
  <defs>
    <linearGradient id="g" x1="0" y1="0" x2="1" y2="1">
      <stop offset="0" stop-color="#12B5C4"/>
      <stop offset="1" stop-color="#0B4A7E"/>
    </linearGradient>
  </defs>
  <rect x="48" y="48" width="928" height="928" rx="96" ry="96" fill="url(#g)"/>
  <path d="M215.50,435.93 L215.50,587.75 L238.48,587.75 Q277.78,587.75 298.53,568.23 Q319.32,548.71 319.32,511.55 Q319.32,474.59 298.63,455.29 Q278.00,435.93 238.48,435.93 L215.50,435.93 Z M151.35,387.41 L218.97,387.41 Q275.65,387.41 303.38,395.52 Q331.11,403.57 350.94,422.92 Q368.43,439.77 376.91,461.80 Q385.44,483.77 385.44,511.55 Q385.44,539.75 376.91,561.83 Q368.43,583.91 350.94,600.70 Q330.95,620.06 302.95,628.16 Q274.96,636.22 218.97,636.22 L151.35,636.22 L151.35,387.41 Z M607.72,395.25 L607.72,447.93 Q587.24,438.76 567.73,434.12 Q548.26,429.43 530.93,429.43 Q507.95,429.43 496.91,435.77 Q485.93,442.07 485.93,455.40 Q485.93,465.42 493.34,471.02 Q500.75,476.57 520.27,480.57 L547.57,486.06 Q589.05,494.43 606.54,511.44 Q624.09,528.40 624.09,559.75 Q624.09,600.86 599.67,620.97 Q575.24,641.07 525.07,641.07 Q501.45,641.07 477.61,636.54 Q453.77,632.06 429.94,623.20 L429.94,569.08 Q453.77,581.72 476.01,588.17 Q498.25,594.57 518.94,594.57 Q539.94,594.57 551.09,587.59 Q562.23,580.55 562.23,567.54 Q562.23,555.91 554.66,549.57 Q547.09,543.22 524.43,538.21 L499.58,532.72 Q462.25,524.72 444.98,507.23 Q427.75,489.74 427.75,460.09 Q427.75,422.92 451.75,402.93 Q475.74,382.93 520.75,382.93 Q541.28,382.93 562.93,386.02 Q584.58,389.12 607.72,395.25 Z M904.00,617.71 Q880.00,629.39 854.20,635.26 Q828.39,641.07 800.87,641.07 Q738.70,641.07 702.39,606.30 Q666.07,571.54 666.07,512.08 Q666.07,451.93 703.03,417.43 Q740.03,382.93 804.39,382.93 Q829.19,382.93 851.90,387.62 Q874.67,392.26 894.83,401.43 L894.83,452.89 Q874.03,441.11 853.45,435.30 Q832.87,429.43 812.18,429.43 Q773.89,429.43 753.15,450.87 Q732.41,472.25 732.41,512.08 Q732.41,551.54 752.40,573.08 Q772.40,594.57 809.19,594.57 Q819.22,594.57 827.80,593.34 Q836.39,592.06 843.21,589.40 L843.21,541.09 L804.02,541.09 L804.02,498.06 L904.00,498.06 L904.00,617.71 Z" fill="#FFFFFF" fill-rule="evenodd"/>
</svg>
